<?xml version="1.0" encoding="iso-8859-1"?>
<!DOCTYPE svg PUBLIC "-//W3C//DTD SVG 20000303 Stylable//EN"
"http://www.w3.org/TR/2000/03/WD-SVG-20000303/DTD/svg-20000303-stylable.dtd">

<svg width="1.9818in" height="2.3542in" viewBox="0 0 841 999">

<path style="fill:#0ff;stroke:#000;stroke-width:2" d="M28,67 l0,864 28,15 84,13 133,7 148,4 146,-4 133,-7 85,-13 28,-15 0,-864 -28,-15 -85,-13 -133,-7 -146,-4 -148,4 -133,7 -84,13 -28,15z" />
<path style="fill:none;stroke:#000;stroke-width:2" d="M28,126 l2,-4 29,-12 26,-5 33,-4 39,-4 29,-3 31,-2 34,-2 35,-1 36,-1 39,-1 20,0 19,0 20,0 40,0 39,0 38,1 36,2 34,1 33,2 30,3 28,2 37,4 31,5 30,7 15,8 2,2 0,2" />
<path style="fill:none;stroke:#000;stroke-width:2" d="M813,872 l-2,4 -29,11 -26,5 -33,5 -39,4 -29,2 -31,3 -34,1 -35,2 -37,1 -38,1 -20,0 -19,0 -21,0 -39,0 -39,-1 -38,-1 -36,-1 -34,-2 -33,-1 -30,-3 -28,-2 -37,-5 -31,-4 -30,-7 -15,-8 -2,-2 0,-2" />

</svg>
