<?xml version="1.0" encoding="iso-8859-1"?>
<!DOCTYPE svg PUBLIC "-//W3C//DTD SVG 20000303 Stylable//EN"
"http://www.w3.org/TR/2000/03/WD-SVG-20000303/DTD/svg-20000303-stylable.dtd">

<svg width="1.4634in" height="2.3542in" viewBox="0 0 621 999">

<path style="fill:#9cc" d="M92,92 l0,-3 0,-3 0,-3 0,-33 16,-21 4,-1 2,0 14,0 412,0 22,16 1,4 0,2 0,42 -471,0z" />
<path style="fill:#9cc" d="M69,156 l23,-23 471,0 23,23 -517,0z" />
<path style="fill:#9cc" d="M69,884 l517,0 0,-728 -517,0 0,728z" />
<path style="fill:#0ff" d="M126,92 l0,-3 0,-3 0,-3 0,-33 15,-22 1,0 3,0 13,0 318,0 22,16 1,4 0,2 0,42 -373,0z" />
<path style="fill:#0ff" d="M103,156 l23,-23 373,0 23,23 -419,0z" />
<path style="fill:#0ff" d="M103,884 l419,0 0,-728 -419,0 0,728z" />
<path style="fill:#9ff" d="M167,92 l0,-3 0,-3 0,-3 0,-33 3,-10 6,-7 8,-4 4,-1 2,0 12,0 188,0 10,3 7,5 4,8 1,4 0,2 0,42 -245,0z" />
<path style="fill:#9ff" d="M145,156 l22,-23 245,0 23,23 -290,0z" />
<path style="fill:#9ff" d="M145,884 l290,0 0,-728 -290,0 0,728z" />
<path style="fill:#699;stroke:#000;stroke-width:2" d="M586,884 l-23,22 -471,0 -23,-22 517,0z" />
<path style="fill:#699;stroke:#000;stroke-width:2" d="M522,133 l-389,0 22,-13 -8,-24 -11,-4 -3,0 389,0 -22,14 10,25 9,2 3,0z" />
<path style="fill:#366;stroke:#000;stroke-width:2" d="M499,970 l-343,0 -30,-8 -23,-21 -11,-29 0,-6 471,0 -8,30 -21,23 -29,11 -6,0z" />
<path style="fill:#366;stroke:#000;stroke-width:2" d="M126,167 l19,0 0,64 -19,0 0,-64z" />
<path style="fill:#366;stroke:#000;stroke-width:2" d="M424,167 l34,0 0,64 -34,0 0,-64z" />
<path style="fill:none;stroke:#000;stroke-width:2" d="M92,92 l0,-3 0,-3 0,-3 0,-33 16,-21 4,-1 2,0 14,0 412,0 22,16 1,4 0,2 0,42 -471,0" />
<path style="fill:none;stroke:#000;stroke-width:2" d="M522,133 l-389,0 22,-13 -8,-24 -11,-4 -3,0 389,0 -22,14 10,25 9,2 3,0" />
<path style="fill:none;stroke:#000;stroke-width:2" d="M69,156 l23,-23 471,0 23,23 -517,0" />
<path style="fill:none;stroke:#000;stroke-width:2" d="M69,884 l517,0 0,-728 -517,0 0,728" />
<path style="fill:none;stroke:#000;stroke-width:2" d="M69,235 l-41,0 0,-75 41,0 0,75" />
<path style="fill:#366" d="M156,114 l-15,-21 -5,-1 -3,0 389,0 -22,14 -1,6 0,2 -1,0 -342,0z" />
<path style="fill:#699" d="M58,243 l535,0 0,11 -535,0 0,-11z" />
<path style="fill:#9cc" d="M92,243 l437,0 0,11 -437,0 0,-11z" />
<path style="fill:#0ff" d="M133,243 l313,0 0,11 -313,0 0,-11z" />
<path style="fill:none;stroke:#000;stroke-width:2" d="M58,243 l535,0 0,11 -535,0 0,-11" />
<path style="fill:#0ff;stroke:#000;stroke-width:2" d="M92,819 l87,0 0,-233 -87,0 0,233z" />
<path style="fill:#9cc;stroke:#000;stroke-width:2" d="M69,235 l-41,0 0,-75 41,0 0,75z" />
<path style="fill:#9cc;stroke:#000;stroke-width:2" d="M92,819 l0,-233 87,0 -6,0 -11,-1 -11,-1 -10,-1 -10,-1 -9,-2 -9,-2 -8,-3 -11,-4 -9,-4 -7,-5 -7,-7 -2,-5 0,-2 -41,0 0,234 3,12 5,6 7,6 9,6 10,3 11,3 13,1 6,0z" />
<path style="fill:#0ff" d="M28,235 l0,-75 41,0 0,7 -38,0 0,68 -3,0z" />
<path style="fill:none;stroke:#000;stroke-width:2" d="M28,548 l0,4 1,3 2,3 2,4 3,3 3,3 4,3 4,3 5,3 5,2 5,2 6,2 5,1 6,1 7,0 6,1" />

</svg>
