<?xml version="1.0" encoding="iso-8859-1"?>
<!DOCTYPE svg PUBLIC "-//W3C//DTD SVG 20000303 Stylable//EN"
"http://www.w3.org/TR/2000/03/WD-SVG-20000303/DTD/svg-20000303-stylable.dtd">

<svg width="2.0761in" height="2.3542in" viewBox="0 0 881 999">

<path style="fill:#7f7f7f;stroke:#000;stroke-width:2" d="M852,705 l-824,0 0,177 824,0 0,-177z" />
<path style="fill:#4c4c4c" d="M35,838 l810,0 0,37 -810,0 0,-37z" />
<path style="fill:#7f7f7f;stroke:#000;stroke-width:2" d="M146,28 l589,0 0,294 -589,0 0,-294z" />
<path style="fill:#7f7f7f;stroke:#000;stroke-width:2" d="M234,926 l-88,-15 0,-235 88,-15 0,265z" />
<path style="fill:#7f7f7f;stroke:#000;stroke-width:2" d="M234,617 l412,0 0,353 -412,0 0,-353z" />
<path style="fill:#7f7f7f;stroke:#000;stroke-width:2" d="M646,926 l89,-15 -1,-235 -88,-15 0,265z" />
<path style="fill:#000;stroke:#000;stroke-width:2" d="M263,528 l354,0 0,-118 -354,0 0,118z" />
<path style="fill:#7f7f7f;stroke:#000;stroke-width:2" d="M352,410 l177,0 0,-88 -177,0 0,88z" />
<path style="fill:#7f7f7f;stroke:#000;stroke-width:2" d="M322,617 l236,0 0,-89 -236,0 0,89z" />
<path style="fill:#333;stroke:#000;stroke-width:2" d="M204,57 l472,0 0,236 -472,0 0,-236z" />
<path style="fill:#ff9" d="M263,131 l354,0 0,88 -354,0 0,-88z" />
<path style="fill:#000" d="M623,131 l-6,-7 -354,0 0,14 354,0 -7,-7 13,0 0,-7 -6,0z" />
<path style="fill:#000" d="M617,226 l6,-7 0,-88 -13,0 0,88 7,-7 0,14 6,0 0,-7z" />
<path style="fill:#000" d="M257,219 l6,7 354,0 0,-14 -354,0 7,7 -13,0 0,7 6,0z" />
<path style="fill:#000" d="M263,124 l-6,7 0,88 13,0 0,-88 -7,7 0,-14 -6,0 0,7z" />
<path style="fill:#ccc;stroke:#000;stroke-width:2" d="M337,617 l0,-15 44,-59 118,0 44,59 0,15 -206,0z" />
<circle style="fill:#666;stroke:#000;stroke-width:2" cx="705" cy="57" r="15" />
<circle style="fill:#666" cx="705" cy="293" r="15" />
<circle style="fill:#666" cx="175" cy="57" r="14" />
<circle style="fill:#666" cx="175" cy="293" r="14" />
<path style="fill:none;stroke:#000;stroke-width:2" d="M705,72 l0,-30" />
<path style="fill:none;stroke:#000;stroke-width:2" d="M720,57 l-30,0" />
<circle style="fill:none;stroke:#000;stroke-width:2" cx="705" cy="293" r="15" />
<path style="fill:none;stroke:#000;stroke-width:2" d="M705,308 l0,-30" />
<path style="fill:none;stroke:#000;stroke-width:2" d="M720,293 l-30,0" />
<circle style="fill:none;stroke:#000;stroke-width:2" cx="175" cy="57" r="14" />
<path style="fill:none;stroke:#000;stroke-width:2" d="M175,72 l0,-30" />
<path style="fill:none;stroke:#000;stroke-width:2" d="M190,57 l-30,0" />
<circle style="fill:none;stroke:#000;stroke-width:2" cx="175" cy="293" r="14" />
<path style="fill:none;stroke:#000;stroke-width:2" d="M175,308 l0,-30" />
<path style="fill:none;stroke:#000;stroke-width:2" d="M190,293 l-30,0" />
<path style="fill:none;stroke:#7f7f7f;stroke-width:2" d="M263,425 l354,0" />
<path style="fill:none;stroke:#7f7f7f;stroke-width:2" d="M617,514 l-354,0" />
<path style="fill:#4c4c4c" d="M153,852 l74,0 0,66 -74,-15 0,-51z" />
<path style="fill:#4c4c4c" d="M727,852 l-73,0 0,66 73,-15 0,-51z" />

</svg>
