<?xml version="1.0" encoding="iso-8859-1"?>
<!DOCTYPE svg PUBLIC "-//W3C//DTD SVG 20000303 Stylable//EN"
"http://www.w3.org/TR/2000/03/WD-SVG-20000303/DTD/svg-20000303-stylable.dtd">

<svg width="1.6142in" height="2.3542in" viewBox="0 0 685 999">

<path style="fill:#006" d="M28,892 l0,-550 98,0 0,118 432,0 0,-118 98,0 0,550 -98,0 0,-118 -432,0 0,118 -98,0z" />
<path style="fill:#00007f" d="M28,832 l0,-431 98,0 0,92 432,0 0,-92 98,0 0,431 -98,0 0,-92 -432,0 0,92 -98,0z" />
<path style="fill:#009" d="M28,813 l0,-393 98,0 0,85 432,0 0,-85 98,0 0,393 -98,0 0,-84 -432,0 0,84 -98,0z" />
<path style="fill:#0000b2" d="M28,744 l0,-255 98,0 0,55 432,0 0,-55 98,0 0,255 -98,0 0,-55 -432,0 0,55 -98,0z" />
<path style="fill:#00c" d="M28,676 l0,-118 98,0 0,25 432,0 0,-25 98,0 0,118 -98,0 0,-25 -432,0 0,25 -98,0z" />
<path style="fill:none;stroke:#000;stroke-width:2" d="M28,892 l0,-550 98,0 0,118 432,0 0,-118 98,0 0,550 -98,0 0,-118 -432,0 0,118 -98,0" />
<path style="fill:none;stroke:#000;stroke-width:2" d="M126,774 l0,-314" />
<path style="fill:none;stroke:#000;stroke-width:2" d="M558,774 l0,-314" />
<path style="fill:#7f7f7f" d="M185,303 l314,0 0,628 -314,0 0,-628z" />
<path style="fill:#969696" d="M185,366 l314,0 0,501 -314,0 0,-501z" />
<path style="fill:#ababab" d="M185,430 l314,0 0,373 -314,0 0,-373z" />
<path style="fill:#c2c2c2" d="M185,494 l314,0 0,245 -314,0 0,-245z" />
<path style="fill:#d9d9d9" d="M185,558 l314,0 0,118 -314,0 0,-118z" />
<path style="fill:none;stroke:#000;stroke-width:2" d="M185,303 l314,0 0,628 -314,0 0,-628" />
<path style="fill:#bfbfbf;stroke:#000;stroke-width:2" d="M244,774 l196,0 0,196 -196,0 0,-196z" />
<path style="fill:#bfbfbf;stroke:#000;stroke-width:2" d="M441,460 l-197,0 0,-197 197,0 0,197z" />
<path style="fill:#ccc;stroke:#000;stroke-width:2" d="M126,597 l432,0 0,20 -432,0 0,-20z" />
<path style="fill:#b2b2b2;stroke:#000;stroke-width:2" d="M126,616 l432,0 0,20 -432,0 0,-20z" />
<path style="fill:#666" d="M263,793 l157,0 0,20 -157,0 0,-20z" />
<path style="fill:#666" d="M263,828 l157,0 0,20 -157,0 0,-20z" />
<path style="fill:#666" d="M263,857 l157,0 0,20 -157,0 0,-20z" />
<path style="fill:#666" d="M263,887 l157,0 0,14 -157,0 0,-14z" />
<path style="fill:#666" d="M421,440 l-157,0 0,-20 157,0 0,20z" />
<path style="fill:#666" d="M421,406 l-157,0 0,-20 157,0 0,20z" />
<path style="fill:#666" d="M421,376 l-157,0 0,-20 157,0 0,20z" />
<path style="fill:#666" d="M421,347 l-157,0 0,-15 157,0 0,15z" />
<path style="fill:#d9d9d9" d="M165,224 l20,-20 314,-157 20,-19 0,196 -354,0z" />
<path style="fill:#f2f2f2" d="M519,28 l-20,19 -314,157 -20,20 0,-196 354,0z" />
<path style="fill:#fff;stroke:#7f7f7f;stroke-width:2" d="M185,48 l314,0 0,156 -314,0 0,-156z" />
<path style="fill:none;stroke:#000;stroke-width:2" d="M165,28 l354,0 0,196 -354,0 0,-196" />
<path style="fill:#e5e5e5;stroke:#000;stroke-width:2" d="M362,67 l98,0 0,98 -98,0 0,-98z" />
<path style="fill:#000" d="M298,47 l5,0 0,157 -5,0 0,-157z" />
<path style="fill:#900" d="M205,170 l39,0 0,15 -39,0 0,-15z" />
<path style="fill:#900" d="M283,293 l49,0 0,15 -49,0 0,-15z" />
<path style="fill:#f2f2f2;stroke:#000;stroke-width:2" d="M263,283 l157,0 0,34 -157,0 0,-34z" />
<path style="fill:#090;stroke:#000;stroke-width:2" d="M381,82 l59,0 0,29 -59,0 0,-29z" />
<path style="fill:none;stroke:#000;stroke-width:2" d="M362,175 l98,0" />
<path style="fill:none;stroke:#000;stroke-width:2" d="M460,185 l-98,0" />
<path style="fill:none;stroke:#000;stroke-width:2" d="M362,195 l98,0" />
<path style="fill:#999;stroke:#000;stroke-width:2" d="M381,263 l0,-39 -118,0 40,39 78,0z" />
<path style="fill:none;stroke:#000;stroke-width:2" d="M303,263 l0,-39" />

</svg>
